<?xml version="1.0" encoding="utf-8"?>
<!-- Generator: Adobe Illustrator 19.0.0, SVG Export Plug-In . SVG Version: 6.00 Build 0)  -->
<svg version="1.1" id="Isolation_Mode" xmlns="http://www.w3.org/2000/svg" xmlns:xlink="http://www.w3.org/1999/xlink" x="0px"
	 y="0px" viewBox="0 0 175.45 196.35" style="enable-background:new 0 0 175.45 196.35;" xml:space="preserve">
<style type="text/css">
	.st0{fill:#FFFFFF;}
</style>
<g>
	<g>
		<path class="st0" d="M68.36,193.18c2.08,2.22,6.41,4.56,9.3,2.17c0.85-2.64,3.84-5.48,7.7-8.26c-1.68-1.06-4.01-2.36-6.53-3.71
			C72.81,187.04,68.18,190.68,68.36,193.18z"/>
		<path class="st0" d="M96.48,180.23c0.29-0.16,0.58-0.32,0.87-0.49c-0.59-0.31-1.14-0.68-1.66-1.12l-0.08-0.07l-2.04-2.76
			l-0.04-0.1c-0.03-0.06-0.05-0.13-0.07-0.19c-0.96,0.47-1.96,0.97-2.97,1.48c1.8,0.93,3.5,1.82,4.92,2.62
			C95.76,179.81,96.12,180.03,96.48,180.23z"/>
		<path class="st0" d="M82,175.51c-0.02,0.05-0.04,0.13-0.07,0.19l-0.05,0.1l-2.05,2.76l-0.08,0.07c-0.52,0.43-1.08,0.81-1.66,1.12
			c8.37,4.59,18.04,10.51,19.69,15.6c2.89,2.39,7.21,0.04,9.3-2.17C107.39,188.78,92.9,180.9,82,175.51z"/>
		<path class="st0" d="M102.06,163.21c-5.18,3.42-7.32,8.81-5.86,12.17c1.46-1.04,4.56-3.64,7.67-5.71
			c4.91-3.28,13.32-7.36,13.32-7.36s-7.23,5.68-11.91,9.25c-2.96,2.26-6.09,4.81-7.63,5.75c2.84,2.44,8.29,1.47,13.48-1.94
			c5.74-3.78,12.97-11.75,13.56-18C118.03,155.22,107.81,159.42,102.06,163.21z"/>
		<path class="st0" d="M73.39,163.21c-5.76-3.79-15.97-7.98-22.62-5.83c0.59,6.25,7.81,14.21,13.56,18
			c5.19,3.4,10.62,4.38,13.47,1.94c-1.53-0.95-4.67-3.49-7.64-5.75c-4.68-3.56-11.91-9.25-11.91-9.25s8.4,4.08,13.32,7.36
			c3.11,2.07,6.19,4.67,7.66,5.71C80.72,172.02,78.57,166.62,73.39,163.21z"/>
		<path class="st0" d="M124.84,165.1c-1.28,2.15-2.91,4.24-4.66,6.12c4.86,0.12,10.99,0.31,10.99,0.31s-8,1.06-12.91,1.64
			c-1.85,1.77-3.75,3.3-5.47,4.44c-0.47,0.31-0.94,0.59-1.43,0.86c2,0.81,4.49,1.26,7.31,1.12c7-0.35,17.81-2.95,21.63-8.51
			C137.11,167.88,130.76,165.89,124.84,165.1z"/>
		<path class="st0" d="M57.2,173.18c-4.92-0.58-12.91-1.64-12.91-1.64s6.13-0.2,10.98-0.31c-1.75-1.88-3.37-3.97-4.66-6.12
			c-5.92,0.78-12.26,2.77-15.46,5.99c3.83,5.56,14.63,8.16,21.64,8.51c2.82,0.14,5.31-0.3,7.31-1.12c-0.48-0.27-0.96-0.55-1.43-0.86
			C60.95,176.48,59.04,174.95,57.2,173.18z"/>
		<path class="st0" d="M125.63,154.77l0.7,0.23c2.95-3.35,6.31-7.14,6.31-7.14s-2.55,4.16-4.87,7.88l-0.18,1.88
			c-0.15,1.61-0.67,3.26-1.41,4.9c1.46,0.22,2.94,0.52,4.41,0.87c0.38-0.42,0.75-0.84,1.1-1.3c4.03-5.41,7.93-15.21,6.21-21.27
			c-7.03,0.11-15.11,7.34-19.14,12.75c-0.14,0.2-0.25,0.39-0.39,0.59C120.91,153.91,123.38,154.05,125.63,154.77z"/>
		<path class="st0" d="M47.86,157.62l-0.18-1.88c-2.32-3.72-4.87-7.88-4.87-7.88s3.38,3.79,6.32,7.14l0.69-0.23
			c2.24-0.72,4.73-0.86,7.28-0.61c-0.14-0.19-0.25-0.39-0.39-0.59c-4.03-5.4-12.12-12.64-19.15-12.75
			c-1.72,6.05,2.18,15.86,6.21,21.27c0.35,0.47,0.72,0.88,1.1,1.3c1.46-0.36,2.95-0.65,4.41-0.87
			C48.53,160.88,48.01,159.22,47.86,157.62z"/>
		<path class="st0" d="M155.74,154.23c-3.77-2.3-10.06-2.84-15.81-2.36c-0.74,2.4-1.73,4.77-2.82,6.89
			c4.58-0.95,9.89-2.02,9.89-2.02s-6.48,2.46-11.09,4.16c-0.61,1.01-1.23,1.95-1.84,2.77c-0.15,0.21-0.32,0.4-0.47,0.61
			c1.98,0.65,3.83,1.47,5.48,2.43C145.57,164.43,153.68,159.85,155.74,154.23z"/>
		<path class="st0" d="M41.37,163.66c-0.62-0.82-1.23-1.76-1.83-2.77c-4.62-1.7-11.09-4.16-11.09-4.16s5.31,1.07,9.89,2.02
			c-1.1-2.13-2.08-4.49-2.82-6.89c-5.75-0.48-12.04,0.05-15.82,2.36c2.06,5.62,10.17,10.21,16.66,12.48
			c1.65-0.96,3.5-1.78,5.48-2.43C41.69,164.07,41.53,163.87,41.37,163.66z"/>
		<path class="st0" d="M140.09,138.03c1.97-4.07,4.38-8.93,4.38-8.93s-2.2,7.69-3.54,12.13c0.44,2.41,0.3,5.09-0.28,7.82
			c0.95-0.05,1.9-0.08,2.86-0.09c1.59-1.41,2.98-3.39,3.95-5.88c2.39-6.2,3.46-16.63,0.14-22.06c-6.75,1.81-12.57,10.77-14.97,16.97
			c-0.16,0.42-0.27,0.83-0.4,1.24c1.85-0.71,3.74-1.14,5.61-1.16L140.09,138.03z"/>
		<path class="st0" d="M34.8,149.05c-0.58-2.73-0.72-5.41-0.28-7.81c-1.34-4.45-3.54-12.14-3.54-12.14s2.41,4.86,4.38,8.93
			l2.25,0.04c1.88,0.02,3.77,0.46,5.61,1.16c-0.13-0.41-0.24-0.82-0.41-1.24c-2.4-6.2-8.21-15.16-14.97-16.97
			c-3.32,5.43-2.26,15.86,0.15,22.06c0.97,2.49,2.37,4.47,3.94,5.88C32.9,148.97,33.85,149,34.8,149.05z"/>
		<path class="st0" d="M166.5,135.01c-3.78-1.3-9.19-0.79-14.22,0.55c-0.36,2.64-0.94,5.16-1.64,7.27c3.9-1.74,7.94-3.52,7.94-3.52
			s-4.92,3.23-8.89,5.81c-0.66,1.44-1.44,2.81-2.39,3.99c2.29,0.2,4.5,0.62,6.49,1.26C159.43,146.73,165.87,140.73,166.5,135.01z"/>
		<path class="st0" d="M25.77,145.12c-3.98-2.58-8.9-5.81-8.9-5.81s4.05,1.78,7.95,3.52c-0.71-2.11-1.3-4.63-1.65-7.27
			c-5.02-1.33-10.43-1.85-14.22-0.55c0.63,5.72,7.05,11.72,12.72,15.35c2-0.65,4.19-1.07,6.49-1.26
			C27.2,147.93,26.43,146.56,25.77,145.12z"/>
		<path class="st0" d="M148.99,117.79l0.52,0.84c0.89-4.54,2.12-10.52,2.12-10.52s-0.19,9.75-0.36,13.93
			c0.96,2.54,1.34,5.52,1.33,8.56c2.79-1.46,5.01-4.92,5.53-9.6c0.74-6.57-0.91-16.92-5.53-21.43c-6.09,3.29-9.42,13.31-10.16,19.88
			c-0.05,0.32-0.04,0.62-0.06,0.94c1.4-0.9,2.88-1.6,4.41-2.01L148.99,117.79z"/>
		<path class="st0" d="M23.81,108.11c0,0,1.23,5.98,2.12,10.51l0.53-0.83l2.19,0.59c1.55,0.41,3.04,1.11,4.42,2.01
			c-0.01-0.33-0.01-0.62-0.04-0.94c-0.74-6.57-4.07-16.58-10.17-19.88c-4.62,4.5-6.27,14.86-5.53,21.43
			c0.52,4.68,2.74,8.14,5.53,9.6c-0.01-3.03,0.38-6.01,1.33-8.56C24,117.86,23.81,108.11,23.81,108.11z"/>
		<path class="st0" d="M161.04,121.29c-0.13,1.08-0.33,2.15-0.62,3.17c2.88-2,5.44-3.74,5.44-3.74s-3.24,3.15-6.32,6.11
			c-0.94,2.09-2.25,3.91-3.91,5.2c2.93-0.5,5.85-0.65,8.51-0.34c4.58-4.58,9.12-11.18,8.62-16.62c-3.34-0.49-7.53,0.46-11.54,2.09
			C161.24,118.63,161.18,120.04,161.04,121.29z"/>
		<path class="st0" d="M19.82,132.02c-1.65-1.29-2.97-3.11-3.9-5.2c-3.08-2.96-6.33-6.11-6.33-6.11s2.56,1.75,5.44,3.75
			c-0.3-1.02-0.51-2.08-0.62-3.17c-0.14-1.25-0.2-2.64-0.18-4.13c-4.02-1.63-8.21-2.58-11.54-2.09c-0.5,5.44,4.04,12.05,8.62,16.62
			C13.97,131.37,16.91,131.53,19.82,132.02z"/>
		<path class="st0" d="M151.14,97.18l1.81-0.98c-0.52-4.32-1.07-9.18-1.07-9.18s2.05,6.74,3.36,11.26c2.27,2.5,3.81,6.03,4.76,9.8
			c2.08-2.21,3.02-6.04,2.1-10.53c-1.33-6.48-6.13-15.93-11.95-18.97c-4.81,4.83-4.89,15.33-3.55,21.8c0.04,0.17,0.1,0.32,0.14,0.49
			C148.02,99.36,149.47,98.08,151.14,97.18z"/>
		<path class="st0" d="M23.56,87.01c0,0-0.54,4.87-1.06,9.18l1.81,0.98c1.67,0.9,3.13,2.18,4.4,3.68c0.04-0.17,0.1-0.32,0.13-0.49
			c1.34-6.48,1.26-16.97-3.54-21.8c-5.82,3.04-10.62,12.49-11.95,18.97c-0.92,4.49,0.02,8.32,2.1,10.53
			c0.94-3.75,2.48-7.28,4.75-9.79C21.51,93.76,23.56,87.01,23.56,87.01z"/>
		<path class="st0" d="M164.53,105.92c2.55-2.7,4.93-5.19,4.93-5.19s-6.08,9.14-8.28,12.27c-0.07,0.11-0.16,0.23-0.24,0.34
			c0.03,0.29,0.09,0.6,0.11,0.89c2.96-1.11,6.03-1.87,8.88-2.01c3.58-5.4,6.77-13,5.02-18.35c-3.08,0.15-6.59,1.64-9.9,3.7
			C165.57,100.5,165.4,103.42,164.53,105.92z"/>
		<path class="st0" d="M14.52,113.34c-0.09-0.11-0.17-0.23-0.25-0.34C12.07,109.87,6,100.74,6,100.74s2.38,2.49,4.93,5.19
			c-0.88-2.51-1.05-5.43-0.54-8.36c-3.31-2.06-6.83-3.54-9.9-3.7c-1.75,5.35,1.45,12.95,5.02,18.35c2.86,0.15,5.92,0.9,8.89,2.01
			C14.43,113.95,14.49,113.64,14.52,113.34z"/>
		<path class="st0" d="M149.57,75.12l0.35,0.19c-1.76-4.21-3.88-9.41-3.88-9.41s4.64,7.28,7.05,11.21c2.51,1.72,4.73,4.3,6.56,7.18
			c1.42-2.63,1.29-6.58-0.85-10.7c-3.07-5.92-10.29-13.89-16.76-15.41c-3.31,5.84-0.5,15.99,2.58,21.92
			c0.15,0.32,0.34,0.59,0.52,0.89c0.73-1.6,1.67-3.08,2.87-4.29L149.57,75.12z"/>
		<path class="st0" d="M22.36,77.11c2.41-3.93,7.05-11.21,7.05-11.21s-2.13,5.2-3.89,9.41l0.36-0.19l1.56,1.57
			c1.2,1.21,2.14,2.68,2.87,4.29c0.18-0.3,0.37-0.58,0.53-0.89c3.08-5.93,5.88-16.08,2.58-21.92c-6.46,1.52-13.69,9.48-16.76,15.41
			c-2.14,4.12-2.27,8.07-0.85,10.7C17.63,81.41,19.85,78.83,22.36,77.11z"/>
		<path class="st0" d="M161.25,87.05c0.6,1.14,1.13,2.28,1.6,3.42c2.56-3.94,5.98-9.1,5.98-9.1s-3.12,7.26-5.03,11.54
			c0.21,0.61,0.41,1.21,0.58,1.81c2.43-1.43,4.98-2.54,7.47-3.15c2.29-5.78,3.69-13.16,1.13-17.86c-3.16,0.69-6.54,2.92-9.55,5.69
			C163.64,82.28,162.98,85.01,161.25,87.05z"/>
		<path class="st0" d="M11.65,92.9c-1.91-4.27-5.04-11.53-5.04-11.53s3.43,5.16,5.98,9.1c0.47-1.13,1-2.28,1.6-3.42
			c-1.74-2.04-2.39-4.77-2.19-7.65c-3-2.78-6.38-5-9.54-5.69c-2.56,4.7-1.16,12.08,1.13,17.86c2.49,0.6,5.04,1.72,7.47,3.15
			C11.23,94.12,11.43,93.51,11.65,92.9z"/>
		<path class="st0" d="M164.05,62.05c0,0-1.33,6.4-2.33,10.97c0.48,1.03,0.88,2.06,1.16,3.1c1.92-1.6,3.98-2.98,6.08-3.94
			c1.2-6.19,1.19-14.09-2.39-18.4c-4.02,1.68-7.84,6.19-10.54,10.88c1.8,2.04,3.33,4.16,4.5,6.11
			C162.15,66.7,164.05,62.05,164.05,62.05z"/>
		<path class="st0" d="M13.73,73.02c-1-4.57-2.32-10.96-2.32-10.96s1.88,4.64,3.52,8.73c1.17-1.96,2.7-4.08,4.5-6.11
			c-2.7-4.69-6.51-9.2-10.53-10.88C5.31,58.1,5.3,66,6.5,72.19c2.1,0.96,4.15,2.34,6.07,3.94C12.85,75.08,13.25,74.04,13.73,73.02z"
			/>
		<path class="st0" d="M140.52,54.98l1.74,0.4c-2.62-3.97-6.66-10.32-6.66-10.32s7.51,8.15,10.04,11.05
			c0.18,0.21,0.38,0.44,0.56,0.66c2.15,1.05,4.23,2.53,6.17,4.25c0.95-2.84,0.11-6.73-2.78-10.47c-4.12-5.34-12.71-12-19.36-12.45
			c-2.18,6.29,2.46,15.84,6.58,21.18c0.4,0.52,0.82,0.97,1.24,1.43c0.29-1.37,0.74-2.66,1.4-3.83L140.52,54.98z"/>
		<path class="st0" d="M29.81,56.11c2.53-2.9,10.04-11.05,10.04-11.05s-4.05,6.34-6.67,10.32l1.73-0.4l1.08,1.9
			c0.67,1.17,1.1,2.47,1.39,3.83c0.43-0.45,0.85-0.91,1.24-1.42c4.13-5.34,8.77-14.89,6.59-21.18c-6.64,0.45-15.24,7.11-19.35,12.45
			c-2.89,3.74-3.74,7.63-2.79,10.47c1.93-1.72,4.03-3.2,6.16-4.24C29.43,56.56,29.62,56.32,29.81,56.11z"/>
		<path class="st0" d="M151.96,48.94c0.67,0.88,1.27,1.8,1.77,2.75c0.58-4.11,1.22-8.42,1.22-8.42s0.3,8.03,0.4,12.65
			c0.31,1.4,0.41,2.78,0.25,4.1c1.9-2.69,4.14-5.14,6.6-6.91c-0.16-6.45-2-14.8-6.76-18.43c-2.98,2.12-5.34,6.17-6.91,10.49
			C149.85,46.46,151.03,47.74,151.96,48.94z"/>
		<path class="st0" d="M19.84,60.02c-0.16-1.32-0.06-2.7,0.25-4.1c0.1-4.62,0.4-12.65,0.4-12.65s0.64,4.32,1.23,8.42
			c0.5-0.94,1.1-1.86,1.78-2.75c0.92-1.2,2.09-2.48,3.41-3.77c-1.57-4.32-3.92-8.37-6.9-10.49c-4.76,3.62-6.61,11.98-6.77,18.43
			C15.7,54.87,17.94,57.33,19.84,60.02z"/>
		<path class="st0" d="M127.46,37.25l0.71-2.04l0.98,0.07c-3.45-3.3-8.01-7.73-8.01-7.73s8.31,5.69,11.88,8.24
			c2.78,0.65,5.62,1.99,8.29,3.67c0.21-2.94-1.55-6.51-5.22-9.53c-5.29-4.33-15.26-9-21.85-8.03c-0.62,6.58,6.19,14.9,11.48,19.24
			c0.34,0.28,0.68,0.51,1.03,0.76C126.75,40.28,126.95,38.72,127.46,37.25z"/>
		<path class="st0" d="M54.31,27.55c0,0-4.56,4.43-8.01,7.73l0.99-0.07L48,37.25c0.51,1.47,0.71,3.02,0.69,4.64
			c0.35-0.25,0.7-0.48,1.04-0.76c5.29-4.33,12.09-12.65,11.48-19.24c-6.58-0.98-16.54,3.7-21.84,8.03c-3.68,3.02-5.44,6.6-5.23,9.54
			c2.68-1.69,5.52-3.03,8.29-3.68C45.98,33.24,54.31,27.55,54.31,27.55z"/>
		<path class="st0" d="M142.52,33.11c-0.25-3.18-0.46-5.91-0.46-5.91s2.77,10.45,3.63,14.12c0.11,0.5,0.23,1.04,0.34,1.6
			c0.07,0.05,0.14,0.11,0.21,0.16c1.23-3.09,2.88-6.04,4.92-8.31c-1.66-6.16-5.24-13.54-10.53-16.07c-1.83,1.99-3.07,4.96-3.82,8.23
			c0.42,0.31,0.82,0.63,1.19,0.93C139.88,29.4,141.42,31.21,142.52,33.11z"/>
		<path class="st0" d="M29.43,42.92c0.11-0.56,0.22-1.1,0.33-1.6c0.86-3.67,3.62-14.12,3.62-14.12s-0.2,2.72-0.45,5.91
			c1.1-1.9,2.64-3.71,4.52-5.25c0.38-0.3,0.78-0.62,1.2-0.93c-0.75-3.27-2-6.24-3.82-8.23c-5.29,2.53-8.87,9.91-10.53,16.07
			c2.05,2.28,3.69,5.22,4.93,8.31C29.28,43.04,29.35,42.98,29.43,42.92z"/>
		<path class="st0" d="M111.34,21.66l0.14-1.54c-4.07-1.84-8.5-3.87-8.5-3.87s6.03,1.63,10.71,2.95l0.1-0.01
			c3.8-0.56,8.29,0.4,12.53,2.05c-0.76-2.93-3.75-5.85-8.44-7.55c-6.54-2.36-17.61-3.55-23.44-0.52
			c1.81,6.36,11.13,11.96,17.68,14.34C111.47,25.55,111.15,23.57,111.34,21.66z"/>
		<path class="st0" d="M61.66,19.19l0.1,0.01c4.67-1.31,10.72-2.95,10.72-2.95s-4.43,2.03-8.5,3.87l0.14,1.54
			c0.18,1.91-0.14,3.89-0.79,5.85c6.55-2.39,15.88-7.99,17.68-14.34c-5.83-3.03-16.9-1.85-23.45,0.52c-4.69,1.7-7.68,4.62-8.43,7.55
			C53.37,19.59,57.86,18.62,61.66,19.19z"/>
		<path class="st0" d="M124.72,13.89c0,0,0.16,0.28,0.42,0.74c2.54,2.13,4.18,4.79,4.3,7.68c0.06,0.13,0.14,0.25,0.2,0.37
			c1.64,0.79,3.2,1.62,4.6,2.51c0.47-1.75,1.1-3.39,1.88-4.89c-3.07-5.85-8.79-12.99-14.97-14.33c-0.82,1.52-1.29,3.4-1.49,5.44
			c1.94,0.78,3.75,1.79,5.25,3C124.79,14.09,124.72,13.89,124.72,13.89z"/>
		<path class="st0" d="M45.81,22.68c0.07-0.12,0.13-0.23,0.21-0.36c0.11-2.89,1.75-5.56,4.3-7.69c0.25-0.46,0.41-0.74,0.41-0.74
			s-0.07,0.21-0.18,0.53c1.5-1.22,3.3-2.22,5.25-3c-0.2-2.04-0.67-3.92-1.48-5.44c-6.17,1.33-11.88,8.47-14.97,14.31
			c0.78,1.5,1.41,3.15,1.88,4.9C42.63,24.3,44.19,23.47,45.81,22.68z"/>
		<path class="st0" d="M105.03,8.63c-0.77-1.11-1.29-1.85-1.29-1.85s0.75,0.76,1.87,1.88c3.94,0.16,7.89,0.84,11.12,1.76
			c-4.56-4.95-12.19-10.63-18.61-10.41c-0.57,2.57-0.12,5.75,0.91,8.97C100.95,8.69,102.98,8.58,105.03,8.63z"/>
		<path class="st0" d="M71.7,6.78c0,0-0.51,0.74-1.28,1.85c2.05-0.05,4.08,0.05,6.01,0.34c1.03-3.22,1.48-6.4,0.9-8.97
			c-6.42-0.22-14.04,5.46-18.6,10.41c3.22-0.92,7.17-1.6,11.11-1.76C70.95,7.54,71.7,6.78,71.7,6.78z"/>
		<path class="st0" d="M82.42,10.76l1.89,0.99c1.13-0.05,2.26-0.1,3.41-0.1c1.14,0,2.27,0.05,3.4,0.1l1.9-0.99
			c0.95-0.5,2.01-0.88,3.13-1.19c-0.38-1.23-0.65-2.45-0.87-3.66c-2.5-0.24-5.02-0.38-7.57-0.38c-2.56,0-5.08,0.15-7.57,0.38
			c-0.22,1.21-0.48,2.43-0.88,3.66C80.4,9.88,81.46,10.26,82.42,10.76z"/>
	</g>
</g>
</svg>
