<?xml version="1.0" encoding="utf-8"?>
<!-- Generator: Adobe Illustrator 19.0.0, SVG Export Plug-In . SVG Version: 6.00 Build 0)  -->
<svg version="1.1" id="Layer_1" xmlns="http://www.w3.org/2000/svg" xmlns:xlink="http://www.w3.org/1999/xlink" x="0px" y="0px"
	 viewBox="0 0 334.47 334.47" style="enable-background:new 0 0 334.47 334.47;" xml:space="preserve">
<style type="text/css">
	.st0{fill:#F68A1F;}
</style>
<g>
	<path class="st0" d="M107.46,120.76H31.55c-3.09,0-5.6,2.51-5.6,5.6v93.1c0,3.09,2.51,5.6,5.6,5.6h75.92c3.09,0,5.6-2.5,5.6-5.6
		v-93.1C113.06,123.27,110.56,120.76,107.46,120.76L107.46,120.76z M101.86,213.86H37.14v-81.9h64.72V213.86z M129.28,225.06h75.92
		c3.09,0,5.6-2.5,5.6-5.6v-32.02c0-3.09-2.51-5.6-5.6-5.6h-75.92c-3.09,0-5.6,2.51-5.6,5.6v32.02
		C123.68,222.56,126.18,225.06,129.28,225.06L129.28,225.06z M134.87,193.04h64.72v20.82h-64.72V193.04z M318.77,20.2H183.58V5.6
		c0-3.09-2.51-5.6-5.6-5.6h-21.49c-3.09,0-5.6,2.51-5.6,5.6v14.6H15.7C7.04,20.2,0,27.25,0,35.91v202.05c0,8.66,7.04,15.7,15.7,15.7
		h89.66l-22.41,69.62h-9.23c-3.09,0-5.6,2.51-5.6,5.6c0,3.09,2.51,5.6,5.6,5.6h53.49c3.09,0,5.6-2.51,5.6-5.6
		c0-3.09-2.51-5.6-5.6-5.6h-7.88l22.41-69.62h51.01l22.41,69.62h-7.88c-3.09,0-5.6,2.51-5.6,5.6c0,3.09,2.51,5.6,5.6,5.6h53.49
		c3.09,0,5.6-2.51,5.6-5.6c0-3.09-2.51-5.6-5.6-5.6h-9.23l-22.41-69.62h89.65c8.66,0,15.7-7.04,15.7-15.7V35.91
		C334.47,27.25,327.43,20.2,318.77,20.2L318.77,20.2z M162.09,11.2h10.29v9h-10.29V11.2z M107.56,323.27H94.71l22.41-69.62h12.84
		L107.56,323.27z M239.76,323.27h-12.84l-22.41-69.62h12.84L239.76,323.27z M323.27,237.95c0,2.48-2.02,4.5-4.5,4.5h-97.16
		c-0.12,0-0.24,0-0.37,0h-24.24c-0.13,0-0.25,0-0.37,0h-58.8c-0.12,0-0.25,0-0.37,0h-24.24c-0.12,0-0.25,0-0.37,0H15.7
		c-2.48,0-4.5-2.02-4.5-4.5V59.5h312.07V237.95z M323.27,48.3H11.2V35.91c0-2.48,2.02-4.5,4.5-4.5h303.07c2.48,0,4.5,2.02,4.5,4.5
		V48.3z M40.8,104.52c8.66,0,15.7-7.05,15.7-15.7c0-8.66-7.04-15.7-15.7-15.7c-8.66,0-15.7,7.05-15.7,15.7
		C25.1,97.47,32.15,104.52,40.8,104.52L40.8,104.52z M40.8,84.31c2.48,0,4.5,2.02,4.5,4.5c0,2.48-2.02,4.5-4.5,4.5
		c-2.48,0-4.5-2.02-4.5-4.5C36.3,86.33,38.32,84.31,40.8,84.31L40.8,84.31z M129.28,168.79h75.92c3.09,0,5.6-2.51,5.6-5.6V81.04
		c0-3.09-2.51-5.6-5.6-5.6h-75.92c-3.09,0-5.6,2.51-5.6,5.6v82.15C123.68,166.28,126.18,168.79,129.28,168.79L129.28,168.79z
		 M134.87,86.64h64.72v70.94h-64.72V86.64z M65.83,98.92c0-3.09,2.51-5.6,5.6-5.6h20.04c3.09,0,5.6,2.51,5.6,5.6
		c0,3.09-2.5,5.6-5.6,5.6H71.43C68.34,104.52,65.83,102.01,65.83,98.92L65.83,98.92z M227.01,225.06h75.92c3.09,0,5.6-2.5,5.6-5.6
		v-69.22c0-3.09-2.5-5.6-5.6-5.6h-75.92c-3.09,0-5.6,2.51-5.6,5.6v69.22C221.41,222.56,223.91,225.06,227.01,225.06L227.01,225.06z
		 M232.6,155.84h64.72v58.02H232.6V155.84z M227.01,131.96h75.92c3.09,0,5.6-2.51,5.6-5.6V81.04c0-3.09-2.5-5.6-5.6-5.6h-75.92
		c-3.09,0-5.6,2.51-5.6,5.6v45.32C221.41,129.46,223.91,131.96,227.01,131.96L227.01,131.96z M232.6,86.64h64.72v34.12H232.6V86.64z
		 M65.83,81.04c0-3.09,2.51-5.6,5.6-5.6h34.92c3.09,0,5.6,2.51,5.6,5.6c0,3.09-2.5,5.6-5.6,5.6H71.43
		C68.34,86.64,65.83,84.13,65.83,81.04L65.83,81.04z M65.83,81.04"/>
</g>
</svg>
