<?xml version="1.0" encoding="utf-8"?>
<!-- Generator: Adobe Illustrator 19.0.0, SVG Export Plug-In . SVG Version: 6.00 Build 0)  -->
<svg version="1.1" id="Layer_1" xmlns="http://www.w3.org/2000/svg" xmlns:xlink="http://www.w3.org/1999/xlink" x="0px" y="0px"
	 viewBox="-447 102.9 41 42.6" style="enable-background:new -447 102.9 41 42.6;" xml:space="preserve">
<style type="text/css">
	.st0{fill:#FFFFFF;}
</style>
<title>Untitled-1</title>
<g>
	<path class="st0" d="M-406.4,110.2c-0.3-0.3-0.6-0.4-1-0.4l0,0c-1.4,0-2.8-0.6-3.7-1.6c-1-1-1.5-2.4-1.4-3.9c0-0.7-0.5-1.3-1.2-1.4
		c0,0,0,0-0.1,0h-25.3c-0.7,0-1.3,0.6-1.3,1.3c0,0,0,0.1,0,0.1c0.1,1.4-0.4,2.8-1.4,3.9c-1,1-2.3,1.6-3.7,1.6l0,0
		c-0.4,0-0.7,0.1-1,0.4c-0.2,0.3-0.4,0.6-0.4,1c0.5,8.4,3.6,24.1,19.8,34.2c0.4,0.3,1,0.3,1.4,0c16.2-10.1,19.3-25.7,19.8-34.2
		C-406,110.8-406.1,110.4-406.4,110.2L-406.4,110.2L-406.4,110.2L-406.4,110.2z M-426.5,142.7c-13.8-9-17.1-22.3-17.8-30.3
		c1.6-0.3,3.1-1.1,4.2-2.3c1.2-1.2,1.9-2.8,2.1-4.4h22.8c0.2,1.7,1,3.2,2.1,4.4c1.1,1.2,2.6,2,4.2,2.3
		C-409.4,120.3-412.7,133.7-426.5,142.7L-426.5,142.7L-426.5,142.7z"/>
	<path class="st0" d="M-425.6,109c-6.5-0.5-12.1,4.3-12.6,10.8s4.3,12.1,10.8,12.6c0.3,0,0.6,0,0.9,0c6.5,0,11.8-5.2,11.8-11.7
		C-414.6,114.5-419.4,109.4-425.6,109L-425.6,109L-425.6,109L-425.6,109z M-417.4,121.4c-0.4,5-4.8,8.8-9.8,8.4s-8.8-4.8-8.4-9.8
		c0.4-4.7,4.3-8.4,9.1-8.4h0.7C-420.8,112-417,116.4-417.4,121.4L-417.4,121.4L-417.4,121.4L-417.4,121.4z"/>
	<path class="st0" d="M-422.1,117l-6.3,5.4l-2.1-2.5c-0.5-0.5-1.3-0.6-1.9-0.1c-0.5,0.5-0.6,1.2-0.1,1.8l3,3.5
		c0.5,0.6,1.3,0.6,1.9,0.1l7.3-6.2c0.5-0.5,0.6-1.3,0.1-1.9C-420.8,116.7-421.5,116.6-422.1,117L-422.1,117L-422.1,117z"/>
</g>
</svg>
